<svg width="24" height="24" viewBox="0 0 24 24" fill="none" xmlns="http://www.w3.org/2000/svg">
<path d="M19 3.1V2C19 1.73478 18.8946 1.48043 18.7071 1.29289C18.5196 1.10536 18.2652 1 18 1C17.7348 1 17.4804 1.10536 17.2929 1.29289C17.1054 1.48043 17 1.73478 17 2V3H13V2C13 1.73478 12.8946 1.48043 12.7071 1.29289C12.5196 1.10536 12.2652 1 12 1C11.7348 1 11.4804 1.10536 11.2929 1.29289C11.1054 1.48043 11 1.73478 11 2V3H7V2C7 1.73478 6.89464 1.48043 6.70711 1.29289C6.51957 1.10536 6.26522 1 6 1C5.73478 1 5.48043 1.10536 5.29289 1.29289C5.10536 1.48043 5 1.73478 5 2V3.1C3.87064 3.33053 2.8556 3.94418 2.12669 4.8371C1.39778 5.73001 0.999765 6.84735 1 8V18C1 18.6566 1.12933 19.3068 1.3806 19.9134C1.63188 20.52 2.00017 21.0712 2.46447 21.5355C3.40215 22.4732 4.67392 23 6 23H18C18.6566 23 19.3068 22.8707 19.9134 22.6194C20.52 22.3681 21.0712 21.9998 21.5355 21.5355C21.9998 21.0712 22.3681 20.52 22.6194 19.9134C22.8707 19.3068 23 18.6566 23 18V8C23.0002 6.84735 22.6022 5.73001 21.8733 4.8371C21.1444 3.94418 20.1294 3.33053 19 3.1ZM21 18C21 18.7956 20.6839 19.5587 20.1213 20.1213C19.5587 20.6839 18.7956 21 18 21H6C5.20435 21 4.44129 20.6839 3.87868 20.1213C3.31607 19.5587 3 18.7956 3 18V8C3.00174 7.38106 3.19488 6.7778 3.55294 6.27293C3.911 5.76807 4.41645 5.38631 5 5.18V6C5 6.26522 5.10536 6.51957 5.29289 6.70711C5.48043 6.89464 5.73478 7 6 7C6.26522 7 6.51957 6.89464 6.70711 6.70711C6.89464 6.51957 7 6.26522 7 6V5H11V6C11 6.26522 11.1054 6.51957 11.2929 6.70711C11.4804 6.89464 11.7348 7 12 7C12.2652 7 12.5196 6.89464 12.7071 6.70711C12.8946 6.51957 13 6.26522 13 6V5H17V6C17 6.26522 17.1054 6.51957 17.2929 6.70711C17.4804 6.89464 17.7348 7 18 7C18.2652 7 18.5196 6.89464 18.7071 6.70711C18.8946 6.51957 19 6.26522 19 6V5.18C19.5835 5.38631 20.089 5.76807 20.4471 6.27293C20.8051 6.7778 20.9983 7.38106 21 8V18ZM16.76 10.34C16.8537 10.433 16.9281 10.5436 16.9789 10.6654C17.0297 10.7873 17.0558 10.918 17.0558 11.05C17.0558 11.182 17.0297 11.3127 16.9789 11.4346C16.9281 11.5564 16.8537 11.667 16.76 11.76L11.95 16.49C11.7626 16.6763 11.5092 16.7808 11.245 16.7808C10.9808 16.7808 10.7274 16.6763 10.54 16.49L8.25 14.25C8.15627 14.157 8.08188 14.0464 8.03111 13.9246C7.98034 13.8027 7.9542 13.672 7.9542 13.54C7.9542 13.408 7.98034 13.2773 8.03111 13.1554C8.08188 13.0336 8.15627 12.923 8.25 12.83C8.43736 12.6437 8.69081 12.5392 8.955 12.5392C9.21919 12.5392 9.47264 12.6437 9.66 12.83L11.24 14.38L15.36 10.38C15.5416 10.1913 15.79 10.0815 16.0518 10.074C16.3136 10.0665 16.5679 10.162 16.76 10.34Z" fill="#0560FA"/>
</svg>
