<svg width="24" height="24" viewBox="0 0 24 24" fill="none" xmlns="http://www.w3.org/2000/svg">
<rect width="24" height="24" rx="5" fill="#54A2FF"/>
<path d="M10.4325 16.8504C10.3291 16.9537 10.1888 17.0118 10.0426 17.0118C9.89637 17.0118 9.75613 16.9537 9.6527 16.8504L5.52032 12.7184C5.41132 12.6093 5.3501 12.4615 5.3501 12.3073C5.3501 12.1531 5.41132 12.0052 5.52032 11.8962L6.34254 11.0741C6.39651 11.0201 6.4606 10.9773 6.53112 10.9481C6.60165 10.9189 6.67724 10.9038 6.75358 10.9038C6.82992 10.9038 6.90551 10.9189 6.97603 10.9481C7.04656 10.9773 7.11064 11.0201 7.16462 11.0741L10.0426 13.9518L16.8357 7.15886C16.9447 7.04995 17.0926 6.98877 17.2467 6.98877C17.4009 6.98877 17.5487 7.04995 17.6578 7.15886L18.48 7.98094C18.589 8.09 18.6503 8.2379 18.6503 8.39212C18.6503 8.54634 18.589 8.69424 18.48 8.8033L10.4325 16.8504Z" fill="white"/>
</svg>
