<svg width="20" height="20" viewBox="0 0 20 20" fill="none" xmlns="http://www.w3.org/2000/svg">
<path fill-rule="evenodd" clip-rule="evenodd" d="M8.31 0.25H11.69C11.907 0.25 12.096 0.25 12.274 0.278C12.6207 0.333543 12.9496 0.469462 13.2344 0.674881C13.5192 0.880301 13.7519 1.14952 13.914 1.461C13.998 1.621 14.057 1.8 14.126 2.005L14.237 2.34C14.3136 2.61216 14.4802 2.85032 14.7096 3.0156C14.9389 3.18088 15.2176 3.26351 15.5 3.25H18.5C18.6989 3.25 18.8897 3.32902 19.0303 3.46967C19.171 3.61032 19.25 3.80109 19.25 4C19.25 4.19891 19.171 4.38968 19.0303 4.53033C18.8897 4.67098 18.6989 4.75 18.5 4.75H1.5C1.30109 4.75 1.11032 4.67098 0.96967 4.53033C0.829018 4.38968 0.75 4.19891 0.75 4C0.75 3.80109 0.829018 3.61032 0.96967 3.46967C1.11032 3.32902 1.30109 3.25 1.5 3.25H4.59C4.8571 3.24359 5.11513 3.15177 5.32623 2.988C5.53733 2.82423 5.6904 2.59713 5.763 2.34L5.875 2.005C5.943 1.8 6.002 1.621 6.085 1.461C6.24719 1.1494 6.48009 0.880102 6.76505 0.674675C7.05001 0.469248 7.37911 0.333397 7.726 0.278C7.904 0.25 8.093 0.25 8.309 0.25H8.31ZM7.008 3.25C7.07822 3.11249 7.13675 2.96932 7.183 2.822L7.283 2.522C7.374 2.249 7.395 2.194 7.416 2.154C7.46999 2.05001 7.54758 1.96011 7.64257 1.89152C7.73757 1.82292 7.84731 1.77754 7.963 1.759C8.008 1.752 8.067 1.75 8.355 1.75H11.645C11.933 1.75 11.993 1.752 12.037 1.76C12.1526 1.77843 12.2623 1.82366 12.3573 1.89208C12.4522 1.9605 12.5299 2.05019 12.584 2.154C12.605 2.194 12.626 2.249 12.717 2.523L12.817 2.823L12.856 2.935C12.895 3.044 12.941 3.149 12.992 3.25H7.008Z" fill="#ED3A3A"/>
<path d="M3.91468 6.44993C3.90142 6.25141 3.80985 6.06629 3.6601 5.9353C3.51035 5.80431 3.3147 5.73816 3.11618 5.75143C2.91767 5.76469 2.73255 5.85626 2.60156 6.00601C2.47057 6.15576 2.40442 6.35141 2.41769 6.54993L2.88168 13.5019C2.96668 14.7839 3.03568 15.8199 3.19768 16.6339C3.36668 17.4789 3.65268 18.1849 4.24468 18.7379C4.83568 19.2919 5.55968 19.5309 6.41469 19.6429C7.23668 19.7499 8.27468 19.7499 9.56068 19.7499H10.4397C11.7247 19.7499 12.7637 19.7499 13.5857 19.6429C14.4397 19.5309 15.1637 19.2919 15.7557 18.7379C16.3467 18.1849 16.6327 17.4779 16.8017 16.6339C16.9637 15.8209 17.0317 14.7839 17.1177 13.5019L17.5817 6.54993C17.5949 6.35141 17.5288 6.15576 17.3978 6.00601C17.2668 5.85626 17.0817 5.76469 16.8832 5.75143C16.6847 5.73816 16.489 5.80431 16.3393 5.9353C16.1895 6.06629 16.0979 6.25141 16.0847 6.44993L15.6247 13.3499C15.5347 14.6969 15.4707 15.6349 15.3307 16.3399C15.1937 17.0249 15.0037 17.3869 14.7307 17.6429C14.4567 17.8989 14.0827 18.0649 13.3907 18.1549C12.6777 18.2479 11.7377 18.2499 10.3867 18.2499H9.61268C8.26268 18.2499 7.32269 18.2479 6.60869 18.1549C5.91669 18.0649 5.54269 17.8989 5.26869 17.6429C4.99569 17.3869 4.80569 17.0249 4.66869 16.3399C4.52869 15.6349 4.46468 14.6969 4.37468 13.3499L3.91468 6.44993Z" fill="#ED3A3A"/>
<path d="M7.42474 8.25398C7.62258 8.23416 7.82019 8.2937 7.97415 8.41953C8.1281 8.54535 8.22579 8.72716 8.24574 8.92498L8.74574 13.925C8.76039 14.1201 8.69823 14.3132 8.57252 14.4631C8.44682 14.613 8.26752 14.7078 8.07287 14.7274C7.87822 14.7469 7.68363 14.6897 7.5306 14.5678C7.37757 14.4459 7.27822 14.2691 7.25374 14.075L6.75374 9.07498C6.73391 8.87715 6.79346 8.67953 6.91928 8.52558C7.04511 8.37163 7.22692 8.27394 7.42474 8.25398ZM12.5747 8.25398C12.7724 8.27394 12.954 8.37149 13.0798 8.52522C13.2056 8.67895 13.2653 8.87631 13.2457 9.07399L12.7457 14.074C12.7209 14.2677 12.6216 14.4441 12.4687 14.5657C12.3159 14.6873 12.1216 14.7445 11.9273 14.725C11.7329 14.7056 11.5538 14.6112 11.4281 14.4618C11.3023 14.3124 11.2397 14.1198 11.2537 13.925L11.7537 8.92498C11.7737 8.72735 11.8712 8.5457 12.025 8.41991C12.1787 8.29411 12.3771 8.23444 12.5747 8.25398Z" fill="#ED3A3A"/>
</svg>
