<svg width="512" height="256" viewBox="0 0 512 256" fill="none" xmlns="http://www.w3.org/2000/svg">
<path d="M130.456 255.981C201.866 255.981 259.755 198.682 259.755 128.001C259.755 112.276 256.89 97.2145 251.649 83.2984L178.564 155.638C161.733 172.297 134.443 172.297 117.612 155.638L72.1976 110.687C64.5469 103.114 64.5469 90.8365 72.1976 83.2639C79.8482 75.6913 92.2524 75.6913 99.9031 83.2639L145.317 128.215C146.847 129.729 149.328 129.729 150.858 128.215L231.614 48.2829C207.924 18.8702 171.414 0.0208321 130.456 0.0208321C59.0461 0.0208321 1.15686 57.3194 1.15686 128.001C1.15686 198.682 59.0461 255.981 130.456 255.981Z" fill="#0560FA"/>
<path d="M313.783 91.0455V84.8327H306.66V60.9586H314.347V54.7458H306.66V44.8331H299.748V51.1856C299.748 53.6987 298.902 54.7458 296.363 54.7458H293.26V60.9586H298.972V83.1573C298.972 88.1136 301.794 91.0455 307.083 91.0455H313.783Z" fill="#0560FA"/>
<path d="M338.914 91.8832C349.14 91.8832 355.77 84.4836 355.77 72.8956C355.77 61.3076 349.14 53.9081 338.914 53.9081C328.687 53.9081 322.058 61.3076 322.058 72.8956C322.058 84.4836 328.687 91.8832 338.914 91.8832ZM338.914 85.6006C333.695 85.6006 330.168 82.3894 330.168 75.9672V69.8241C330.168 63.4019 333.695 60.1907 338.914 60.1907C344.133 60.1907 347.659 63.4019 347.659 69.8241V75.9672C347.659 82.3894 344.133 85.6006 338.914 85.6006Z" fill="#0560FA"/>
<path d="M301.887 109.531H341.046C347.894 109.531 354.148 110.612 359.806 112.773C365.464 114.935 370.278 118.177 374.248 122.5C378.218 126.724 381.295 132.079 383.479 138.563C385.663 144.949 386.755 152.416 386.755 160.963C386.755 169.511 385.663 177.027 383.479 183.511C381.295 189.897 378.218 195.252 374.248 199.575C370.278 203.799 365.464 206.992 359.806 209.154C354.148 211.315 347.894 212.396 341.046 212.396H301.887V109.531ZM341.046 192.501C347.795 192.501 353.106 190.634 356.977 186.901C360.848 183.167 362.783 177.174 362.783 168.921V153.005C362.783 144.753 360.848 138.76 356.977 135.026C353.106 131.293 347.795 129.426 341.046 129.426H324.519V192.501H341.046Z" fill="#0560FA"/>
<path d="M445.527 215.258C475.822 215.258 500.381 190.95 500.381 160.964C500.381 154.293 499.166 147.903 496.942 141.999L464.425 174.184C458.119 180.426 447.895 180.426 441.589 174.184L420.811 153.618C417.565 150.406 417.565 145.197 420.811 141.984C424.057 138.772 429.319 138.772 432.565 141.984L453.007 162.218L488.442 127.144C478.392 114.666 462.903 106.669 445.527 106.669C415.232 106.669 390.673 130.978 390.673 160.964C390.673 190.95 415.232 215.258 445.527 215.258Z" fill="#0560FA"/>
</svg>
