<svg width="101" height="101" viewBox="0 0 101 101" fill="none" xmlns="http://www.w3.org/2000/svg">
<path d="M50.4999 54.9284C48.5356 54.9284 46.3927 54.5713 44.4284 54.0356C44.2499 54.0356 44.2499 54.0356 44.0713 53.857C35.3213 51.1784 29.0713 42.7856 29.0713 33.4999C29.0713 21.7141 38.7141 12.0713 50.4999 12.0713C52.6427 12.0713 54.607 12.4284 56.5713 12.9641C57.9999 13.3213 58.7141 14.9284 58.357 16.357C57.9999 17.7856 56.3927 18.4999 54.9641 18.1427C53.5356 17.607 52.107 17.4284 50.4999 17.4284C41.5713 17.4284 34.4284 24.5713 34.4284 33.4999C34.4284 40.6427 39.0713 46.8927 45.857 48.857H46.0356C47.4641 49.2142 48.8927 49.3927 50.4999 49.3927C59.4284 49.3927 66.5713 42.2499 66.5713 33.3213C66.5713 31.7141 66.3927 30.2856 65.857 28.6784C65.4999 27.2499 66.2142 25.8213 67.6427 25.2856C69.0713 24.9284 70.4999 25.6427 71.0356 27.0713C71.5713 29.0356 71.9284 31.1784 71.9284 33.1427C71.9284 45.2856 62.2856 54.9284 50.4999 54.9284Z" fill="#BADAFF"/>
<path d="M46.9287 39.7503C46.2144 39.7503 45.5001 39.5717 44.9644 39.036L39.6073 33.6789C38.5359 32.6074 38.5359 31.0003 39.6073 29.9289C40.6787 28.8574 42.2859 28.8574 43.3573 29.9289L46.7501 33.3217L67.2859 12.786C68.3573 11.7146 69.9644 11.7146 71.0359 12.786C72.1073 13.8574 72.1073 15.4646 71.0359 16.536L48.893 39.036C48.3573 39.5717 47.643 39.7503 46.9287 39.7503Z" fill="#76B5FF"/>
<path d="M15.2991 85.5C15.1817 85.5 15.0911 85.468 15.0271 85.404C14.9631 85.3293 14.9311 85.2387 14.9311 85.132V74.684C14.9311 74.5667 14.9631 74.476 15.0271 74.412C15.0911 74.3373 15.1817 74.3 15.2991 74.3H16.0351C16.1631 74.3 16.2591 74.332 16.3231 74.396C16.3871 74.4493 16.4244 74.492 16.4351 74.524L21.7471 82.684V74.684C21.7471 74.5667 21.7791 74.476 21.8431 74.412C21.9071 74.3373 21.9977 74.3 22.1151 74.3H22.8831C23.0004 74.3 23.0911 74.3373 23.1551 74.412C23.2297 74.476 23.2671 74.5667 23.2671 74.684V85.116C23.2671 85.2227 23.2297 85.3133 23.1551 85.388C23.0911 85.4627 23.0057 85.5 22.8991 85.5H22.1311C22.0137 85.5 21.9231 85.468 21.8591 85.404C21.8057 85.34 21.7684 85.2973 21.7471 85.276L16.4511 77.196V85.132C16.4511 85.2387 16.4137 85.3293 16.3391 85.404C16.2751 85.468 16.1844 85.5 16.0671 85.5H15.2991ZM29.2404 85.66C28.4298 85.66 27.7524 85.5053 27.2084 85.196C26.6644 84.8867 26.2484 84.46 25.9604 83.916C25.6724 83.3613 25.5124 82.732 25.4804 82.028C25.4698 81.8467 25.4644 81.6173 25.4644 81.34C25.4644 81.052 25.4698 80.8227 25.4804 80.652C25.5124 79.9373 25.6724 79.308 25.9604 78.764C26.2591 78.22 26.6804 77.7933 27.2244 77.484C27.7684 77.1747 28.4404 77.02 29.2404 77.02C30.0404 77.02 30.7124 77.1747 31.2564 77.484C31.8004 77.7933 32.2164 78.22 32.5044 78.764C32.8031 79.308 32.9684 79.9373 33.0004 80.652C33.0111 80.8227 33.0164 81.052 33.0164 81.34C33.0164 81.6173 33.0111 81.8467 33.0004 82.028C32.9684 82.732 32.8084 83.3613 32.5204 83.916C32.2324 84.46 31.8164 84.8867 31.2724 85.196C30.7284 85.5053 30.0511 85.66 29.2404 85.66ZM29.2404 84.428C29.9018 84.428 30.4298 84.22 30.8244 83.804C31.2191 83.3773 31.4324 82.7587 31.4644 81.948C31.4751 81.788 31.4804 81.5853 31.4804 81.34C31.4804 81.0947 31.4751 80.892 31.4644 80.732C31.4324 79.9213 31.2191 79.308 30.8244 78.892C30.4298 78.4653 29.9018 78.252 29.2404 78.252C28.5791 78.252 28.0458 78.4653 27.6404 78.892C27.2458 79.308 27.0378 79.9213 27.0164 80.732C27.0058 80.892 27.0004 81.0947 27.0004 81.34C27.0004 81.5853 27.0058 81.788 27.0164 81.948C27.0378 82.7587 27.2458 83.3773 27.6404 83.804C28.0458 84.22 28.5791 84.428 29.2404 84.428ZM41.8461 85.5C41.2487 85.5 40.7634 85.388 40.3901 85.164C40.0167 84.9293 39.7447 84.604 39.5741 84.188C39.4034 83.7613 39.3181 83.26 39.3181 82.684V78.46H38.0701C37.9634 78.46 37.8727 78.428 37.7981 78.364C37.7341 78.2893 37.7021 78.1987 37.7021 78.092V77.548C37.7021 77.4413 37.7341 77.356 37.7981 77.292C37.8727 77.2173 37.9634 77.18 38.0701 77.18H39.3181V74.508C39.3181 74.4013 39.3501 74.316 39.4141 74.252C39.4887 74.1773 39.5794 74.14 39.6861 74.14H40.4381C40.5447 74.14 40.6301 74.1773 40.6941 74.252C40.7687 74.316 40.8061 74.4013 40.8061 74.508V77.18H42.7901C42.8967 77.18 42.9821 77.2173 43.0461 77.292C43.1207 77.356 43.1581 77.4413 43.1581 77.548V78.092C43.1581 78.1987 43.1207 78.2893 43.0461 78.364C42.9821 78.428 42.8967 78.46 42.7901 78.46H40.8061V82.572C40.8061 83.0733 40.8914 83.468 41.0621 83.756C41.2327 84.044 41.5367 84.188 41.9741 84.188H42.9501C43.0567 84.188 43.1421 84.2253 43.2061 84.3C43.2807 84.364 43.3181 84.4493 43.3181 84.556V85.132C43.3181 85.2387 43.2807 85.3293 43.2061 85.404C43.1421 85.468 43.0567 85.5 42.9501 85.5H41.8461ZM48.2561 85.66C47.4454 85.66 46.7681 85.5053 46.2241 85.196C45.6801 84.8867 45.2641 84.46 44.9761 83.916C44.6881 83.3613 44.5281 82.732 44.4961 82.028C44.4854 81.8467 44.4801 81.6173 44.4801 81.34C44.4801 81.052 44.4854 80.8227 44.4961 80.652C44.5281 79.9373 44.6881 79.308 44.9761 78.764C45.2747 78.22 45.6961 77.7933 46.2401 77.484C46.7841 77.1747 47.4561 77.02 48.2561 77.02C49.0561 77.02 49.7281 77.1747 50.2721 77.484C50.8161 77.7933 51.2321 78.22 51.5201 78.764C51.8187 79.308 51.9841 79.9373 52.0161 80.652C52.0267 80.8227 52.0321 81.052 52.0321 81.34C52.0321 81.6173 52.0267 81.8467 52.0161 82.028C51.9841 82.732 51.8241 83.3613 51.5361 83.916C51.2481 84.46 50.8321 84.8867 50.2881 85.196C49.7441 85.5053 49.0667 85.66 48.2561 85.66ZM48.2561 84.428C48.9174 84.428 49.4454 84.22 49.8401 83.804C50.2347 83.3773 50.4481 82.7587 50.4801 81.948C50.4907 81.788 50.4961 81.5853 50.4961 81.34C50.4961 81.0947 50.4907 80.892 50.4801 80.732C50.4481 79.9213 50.2347 79.308 49.8401 78.892C49.4454 78.4653 48.9174 78.252 48.2561 78.252C47.5947 78.252 47.0614 78.4653 46.6561 78.892C46.2614 79.308 46.0534 79.9213 46.0321 80.732C46.0214 80.892 46.0161 81.0947 46.0161 81.34C46.0161 81.5853 46.0214 81.788 46.0321 81.948C46.0534 82.7587 46.2614 83.3773 46.6561 83.804C47.0614 84.22 47.5947 84.428 48.2561 84.428ZM54.3236 81.372C54.2169 81.372 54.1262 81.34 54.0516 81.276C53.9876 81.2013 53.9556 81.1107 53.9556 81.004V80.396C53.9556 80.2893 53.9876 80.204 54.0516 80.14C54.1262 80.0653 54.2169 80.028 54.3236 80.028H59.1236C59.2302 80.028 59.3156 80.0653 59.3796 80.14C59.4542 80.204 59.4916 80.2893 59.4916 80.396V81.004C59.4916 81.1107 59.4542 81.2013 59.3796 81.276C59.3156 81.34 59.2302 81.372 59.1236 81.372H54.3236ZM64.8256 85.66C64.2389 85.66 63.7322 85.5587 63.3056 85.356C62.8789 85.1427 62.5269 84.86 62.2496 84.508C61.9829 84.1453 61.7802 83.7347 61.6416 83.276C61.5136 82.8173 61.4389 82.332 61.4176 81.82C61.4069 81.6493 61.4016 81.4893 61.4016 81.34C61.4016 81.1907 61.4069 81.0307 61.4176 80.86C61.4389 80.3587 61.5136 79.8787 61.6416 79.42C61.7802 78.9613 61.9829 78.5507 62.2496 78.188C62.5269 77.8253 62.8789 77.5427 63.3056 77.34C63.7322 77.1267 64.2389 77.02 64.8256 77.02C65.4549 77.02 65.9776 77.132 66.3936 77.356C66.8096 77.58 67.1509 77.8573 67.4176 78.188V74.508C67.4176 74.4013 67.4496 74.316 67.5136 74.252C67.5882 74.1773 67.6789 74.14 67.7856 74.14H68.5536C68.6602 74.14 68.7456 74.1773 68.8096 74.252C68.8842 74.316 68.9216 74.4013 68.9216 74.508V85.132C68.9216 85.2387 68.8842 85.3293 68.8096 85.404C68.7456 85.468 68.6602 85.5 68.5536 85.5H67.8336C67.7162 85.5 67.6256 85.468 67.5616 85.404C67.4976 85.3293 67.4656 85.2387 67.4656 85.132V84.46C67.1989 84.8013 66.8522 85.0893 66.4256 85.324C65.9989 85.548 65.4656 85.66 64.8256 85.66ZM65.1616 84.364C65.6949 84.364 66.1216 84.2413 66.4416 83.996C66.7616 83.7507 67.0016 83.4413 67.1616 83.068C67.3216 82.684 67.4069 82.2947 67.4176 81.9C67.4282 81.7293 67.4336 81.5267 67.4336 81.292C67.4336 81.0467 67.4282 80.8387 67.4176 80.668C67.4069 80.2947 67.3162 79.9267 67.1456 79.564C66.9856 79.2013 66.7402 78.9027 66.4096 78.668C66.0896 78.4333 65.6736 78.316 65.1616 78.316C64.6176 78.316 64.1856 78.4387 63.8656 78.684C63.5456 78.9187 63.3162 79.2333 63.1776 79.628C63.0389 80.012 62.9589 80.428 62.9376 80.876C62.9269 81.1853 62.9269 81.4947 62.9376 81.804C62.9589 82.252 63.0389 82.6733 63.1776 83.068C63.3162 83.452 63.5456 83.7667 63.8656 84.012C64.1856 84.2467 64.6176 84.364 65.1616 84.364ZM74.7092 85.66C73.8985 85.66 73.2212 85.5053 72.6772 85.196C72.1332 84.8867 71.7172 84.46 71.4292 83.916C71.1412 83.3613 70.9812 82.732 70.9492 82.028C70.9385 81.8467 70.9332 81.6173 70.9332 81.34C70.9332 81.052 70.9385 80.8227 70.9492 80.652C70.9812 79.9373 71.1412 79.308 71.4292 78.764C71.7279 78.22 72.1492 77.7933 72.6932 77.484C73.2372 77.1747 73.9092 77.02 74.7092 77.02C75.5092 77.02 76.1812 77.1747 76.7252 77.484C77.2692 77.7933 77.6852 78.22 77.9732 78.764C78.2719 79.308 78.4372 79.9373 78.4692 80.652C78.4799 80.8227 78.4852 81.052 78.4852 81.34C78.4852 81.6173 78.4799 81.8467 78.4692 82.028C78.4372 82.732 78.2772 83.3613 77.9892 83.916C77.7012 84.46 77.2852 84.8867 76.7412 85.196C76.1972 85.5053 75.5199 85.66 74.7092 85.66ZM74.7092 84.428C75.3705 84.428 75.8985 84.22 76.2932 83.804C76.6879 83.3773 76.9012 82.7587 76.9332 81.948C76.9439 81.788 76.9492 81.5853 76.9492 81.34C76.9492 81.0947 76.9439 80.892 76.9332 80.732C76.9012 79.9213 76.6879 79.308 76.2932 78.892C75.8985 78.4653 75.3705 78.252 74.7092 78.252C74.0479 78.252 73.5145 78.4653 73.1092 78.892C72.7145 79.308 72.5065 79.9213 72.4852 80.732C72.4745 80.892 72.4692 81.0947 72.4692 81.34C72.4692 81.5853 72.4745 81.788 72.4852 81.948C72.5065 82.7587 72.7145 83.3773 73.1092 83.804C73.5145 84.22 74.0479 84.428 74.7092 84.428ZM83.3687 85.66C82.7714 85.66 82.2594 85.5853 81.8327 85.436C81.406 85.2867 81.0594 85.1053 80.7927 84.892C80.526 84.6787 80.3234 84.4653 80.1847 84.252C80.0567 84.0387 79.9874 83.868 79.9767 83.74C79.966 83.6227 80.0034 83.532 80.0887 83.468C80.174 83.404 80.2594 83.372 80.3447 83.372H81.0487C81.1127 83.372 81.1607 83.3827 81.1927 83.404C81.2354 83.4147 81.2887 83.4573 81.3527 83.532C81.4914 83.6813 81.646 83.8307 81.8167 83.98C81.9874 84.1293 82.1954 84.252 82.4407 84.348C82.6967 84.444 83.0114 84.492 83.3847 84.492C83.9287 84.492 84.3767 84.3907 84.7287 84.188C85.0807 83.9747 85.2567 83.6653 85.2567 83.26C85.2567 82.9933 85.182 82.78 85.0327 82.62C84.894 82.46 84.638 82.316 84.2647 82.188C83.902 82.06 83.4007 81.9267 82.7607 81.788C82.1207 81.6387 81.614 81.4573 81.2407 81.244C80.8674 81.02 80.6007 80.7587 80.4407 80.46C80.2807 80.1507 80.2007 79.804 80.2007 79.42C80.2007 79.0253 80.318 78.6467 80.5527 78.284C80.7874 77.9107 81.1287 77.6067 81.5767 77.372C82.0354 77.1373 82.606 77.02 83.2887 77.02C83.8434 77.02 84.318 77.0893 84.7127 77.228C85.1074 77.3667 85.4327 77.5427 85.6887 77.756C85.9447 77.9587 86.1367 78.1613 86.2647 78.364C86.3927 78.5667 86.462 78.7373 86.4727 78.876C86.4834 78.9827 86.4514 79.0733 86.3767 79.148C86.302 79.212 86.2167 79.244 86.1207 79.244H85.4487C85.374 79.244 85.31 79.228 85.2567 79.196C85.214 79.164 85.1714 79.1267 85.1287 79.084C85.022 78.9453 84.894 78.8067 84.7447 78.668C84.606 78.5293 84.4194 78.4173 84.1847 78.332C83.9607 78.236 83.662 78.188 83.2887 78.188C82.7554 78.188 82.3554 78.3 82.0887 78.524C81.822 78.748 81.6887 79.0307 81.6887 79.372C81.6887 79.5747 81.7474 79.756 81.8647 79.916C81.982 80.076 82.206 80.22 82.5367 80.348C82.8674 80.476 83.358 80.6147 84.0087 80.764C84.7127 80.9027 85.2674 81.0893 85.6727 81.324C86.078 81.5587 86.366 81.8307 86.5367 82.14C86.7074 82.4493 86.7927 82.8067 86.7927 83.212C86.7927 83.66 86.6594 84.0707 86.3927 84.444C86.1367 84.8173 85.7527 85.116 85.2407 85.34C84.7394 85.5533 84.1154 85.66 83.3687 85.66Z" fill="#54A2FF"/>
</svg>
