<svg width="51" height="51" viewBox="0 0 51 51" fill="none" xmlns="http://www.w3.org/2000/svg">
<path d="M25.4999 46.9284C23.5356 46.9284 21.3927 46.5713 19.4284 46.0356C19.2499 46.0356 19.2499 46.0356 19.0713 45.857C10.3213 43.1784 4.07129 34.7856 4.07129 25.4999C4.07129 13.7141 13.7141 4.07129 25.4999 4.07129C27.6427 4.07129 29.607 4.42843 31.5713 4.96415C32.9999 5.32129 33.7141 6.92843 33.357 8.357C32.9999 9.78558 31.3927 10.4999 29.9641 10.1427C28.5356 9.607 27.107 9.42843 25.4999 9.42843C16.5713 9.42843 9.42843 16.5713 9.42843 25.4999C9.42843 32.6427 14.0713 38.8927 20.857 40.857H21.0356C22.4641 41.2142 23.8927 41.3927 25.4999 41.3927C34.4284 41.3927 41.5713 34.2499 41.5713 25.3213C41.5713 23.7141 41.3927 22.2856 40.857 20.6784C40.4999 19.2499 41.2142 17.8213 42.6427 17.2856C44.0713 16.9284 45.4999 17.6427 46.0356 19.0713C46.5713 21.0356 46.9284 23.1784 46.9284 25.1427C46.9284 37.2856 37.2856 46.9284 25.4999 46.9284Z" fill="#BADAFF"/>
<path d="M21.9287 31.7503C21.2144 31.7503 20.5001 31.5717 19.9644 31.036L14.6073 25.6789C13.5359 24.6074 13.5359 23.0003 14.6073 21.9289C15.6787 20.8574 17.2859 20.8574 18.3573 21.9289L21.7501 25.3217L42.2859 4.78599C43.3573 3.71456 44.9644 3.71456 46.0359 4.78599C47.1073 5.85742 47.1073 7.46456 46.0359 8.53599L23.893 31.036C23.3573 31.5717 22.643 31.7503 21.9287 31.7503Z" fill="#76B5FF"/>
</svg>
