<svg width="22" height="22" viewBox="0 0 22 22" fill="none" xmlns="http://www.w3.org/2000/svg">
<path d="M16.6201 8.62031H11.3701C10.9601 8.62031 10.6201 8.28031 10.6201 7.87031C10.6201 7.46031 10.9601 7.12031 11.3701 7.12031H16.6201C16.819 7.12031 17.0097 7.19933 17.1504 7.33998C17.291 7.48064 17.3701 7.6714 17.3701 7.87031C17.3701 8.06922 17.291 8.25999 17.1504 8.40064C17.0097 8.5413 16.819 8.62031 16.6201 8.62031ZM6.12006 9.38031C5.93006 9.38031 5.74006 9.31031 5.59006 9.16031L4.84006 8.41031C4.55006 8.12031 4.55006 7.64031 4.84006 7.35031C5.13006 7.06031 5.61006 7.06031 5.90006 7.35031L6.12006 7.57031L7.84006 5.85031C8.13006 5.56031 8.61006 5.56031 8.90006 5.85031C9.19006 6.14031 9.19006 6.62031 8.90006 6.91031L6.65006 9.16031C6.50954 9.301 6.3189 9.38014 6.12006 9.38031ZM16.6201 15.6203H11.3701C10.9601 15.6203 10.6201 15.2803 10.6201 14.8703C10.6201 14.4603 10.9601 14.1203 11.3701 14.1203H16.6201C16.819 14.1203 17.0097 14.1993 17.1504 14.34C17.291 14.4806 17.3701 14.6714 17.3701 14.8703C17.3701 15.0692 17.291 15.26 17.1504 15.4006C17.0097 15.5413 16.819 15.6203 16.6201 15.6203ZM6.12006 16.3803C5.93006 16.3803 5.74006 16.3103 5.59006 16.1603L4.84006 15.4103C4.55006 15.1203 4.55006 14.6403 4.84006 14.3503C5.13006 14.0603 5.61006 14.0603 5.90006 14.3503L6.12006 14.5703L7.84006 12.8503C8.13006 12.5603 8.61006 12.5603 8.90006 12.8503C9.19006 13.1403 9.19006 13.6203 8.90006 13.9103L6.65006 16.1603C6.50954 16.301 6.3189 16.3801 6.12006 16.3803Z" fill="#0560FA"/>
<path d="M14 21.75H8C2.57 21.75 0.25 19.43 0.25 14V8C0.25 2.57 2.57 0.25 8 0.25H14C19.43 0.25 21.75 2.57 21.75 8V14C21.75 19.43 19.43 21.75 14 21.75ZM8 1.75C3.39 1.75 1.75 3.39 1.75 8V14C1.75 18.61 3.39 20.25 8 20.25H14C18.61 20.25 20.25 18.61 20.25 14V8C20.25 3.39 18.61 1.75 14 1.75H8Z" fill="#0560FA"/>
</svg>
